<?xml version="1.0" encoding="UTF-8" standalone="no"?>
<svg width="255px" height="28px" viewBox="0 0 255 28" version="1.1" xmlns="http://www.w3.org/2000/svg" xmlns:xlink="http://www.w3.org/1999/xlink">
    <!-- Generator: Sketch 40.2 (33826) - http://www.bohemiancoding.com/sketch -->
    <title>ClinTrialConnect</title>
    <desc>Created with Sketch.</desc>
    <defs></defs>
    <g id="CTC-landing-page" stroke="none" stroke-width="1" fill="none" fill-rule="evenodd">
        <g id="ctc-landing-page_patient" transform="translate(-574.000000, -2711.000000)" fill="#FFFFFF">
            <path d="M594.572196,2733.13298 C594.772779,2733.13298 594.954555,2733.21446 595.117529,2733.37743 L596.546676,2734.93821 C595.443469,2736.21693 594.105224,2737.21356 592.531901,2737.92814 C590.958577,2738.64272 589.062469,2739 586.843519,2739 C584.900371,2739 583.139027,2738.66466 581.559436,2737.99396 C579.979844,2737.32326 578.632197,2736.38304 577.516454,2735.17327 C576.400711,2733.9635 575.535709,2732.51243 574.921424,2730.82001 C574.307138,2729.12759 574,2727.26596 574,2725.23506 C574,2723.20415 574.329077,2721.34252 574.98724,2719.6501 C575.645403,2717.95768 576.569952,2716.50348 577.760913,2715.28744 C578.951875,2714.07141 580.377874,2713.12805 582.038952,2712.45735 C583.700031,2711.78665 585.533458,2711.45131 587.539288,2711.45131 C589.520046,2711.45131 591.22811,2711.75845 592.663533,2712.37273 C594.098955,2712.98702 595.374519,2713.82068 596.490262,2714.87374 L595.305574,2716.54735 C595.217819,2716.67271 595.117529,2716.77614 595.004701,2716.85762 C594.891873,2716.93911 594.728902,2716.97985 594.515782,2716.97985 C594.352809,2716.97985 594.180435,2716.92031 593.998657,2716.80121 C593.816878,2716.68211 593.600628,2716.53481 593.349899,2716.3593 C593.09917,2716.18379 592.804569,2715.99575 592.466085,2715.79516 C592.127601,2715.59458 591.726441,2715.40654 591.262592,2715.23103 C590.798744,2715.05552 590.259685,2714.90822 589.6454,2714.78912 C589.031114,2714.67002 588.322816,2714.61048 587.520484,2714.61048 C586.078793,2714.61048 584.759352,2714.85807 583.562122,2715.35326 C582.364892,2715.84845 581.333785,2716.55361 580.468771,2717.46877 C579.603757,2718.38393 578.929933,2719.49966 578.44728,2720.81598 C577.964627,2722.13231 577.723304,2723.60532 577.723304,2725.23506 C577.723304,2726.91494 577.964627,2728.41302 578.44728,2729.72935 C578.929933,2731.04567 579.588086,2732.15827 580.42176,2733.06716 C581.255433,2733.97605 582.242663,2734.66868 583.383479,2735.14506 C584.524295,2735.62145 585.752848,2735.85964 587.069174,2735.85964 C587.871506,2735.85964 588.592341,2735.81263 589.231699,2735.7186 C589.871058,2735.62458 590.463396,2735.47728 591.008731,2735.2767 C591.554066,2735.07611 592.061784,2734.82225 592.531901,2734.51511 C593.002017,2734.20797 593.475261,2733.84128 593.951645,2733.41504 C594.164765,2733.227 594.371613,2733.13298 594.572196,2733.13298 L594.572196,2733.13298 Z M603.284979,2711 L603.284979,2738.69913 L599.937766,2738.69913 L599.937766,2711 L603.284979,2711 Z M611.659279,2719.6501 L611.659279,2738.69913 L608.312066,2738.69913 L608.312066,2719.6501 L611.659279,2719.6501 Z M612.411462,2713.67025 C612.411462,2713.9962 612.345646,2714.3002 612.214014,2714.58227 C612.082381,2714.86434 611.906874,2715.11506 611.687486,2715.33445 C611.468098,2715.55384 611.214239,2715.72621 610.925901,2715.85158 C610.637563,2715.97694 610.330425,2716.03962 610.004477,2716.03962 C609.67853,2716.03962 609.374526,2715.97694 609.092456,2715.85158 C608.810386,2715.72621 608.559661,2715.55384 608.340273,2715.33445 C608.120885,2715.11506 607.948512,2714.86434 607.823147,2714.58227 C607.697783,2714.3002 607.635102,2713.9962 607.635102,2713.67025 C607.635102,2713.3443 607.697783,2713.03403 607.823147,2712.73942 C607.948512,2712.44482 608.120885,2712.18782 608.340273,2711.96844 C608.559661,2711.74905 608.810386,2711.57667 609.092456,2711.45131 C609.374526,2711.32595 609.67853,2711.26326 610.004477,2711.26326 C610.330425,2711.26326 610.637563,2711.32595 610.925901,2711.45131 C611.214239,2711.57667 611.468098,2711.74905 611.687486,2711.96844 C611.906874,2712.18782 612.082381,2712.44482 612.214014,2712.73942 C612.345646,2713.03403 612.411462,2713.3443 612.411462,2713.67025 L612.411462,2713.67025 Z M616.310275,2738.69913 L616.310275,2719.6501 L618.303559,2719.6501 C618.779944,2719.6501 619.080814,2719.88202 619.206179,2720.34587 L619.469443,2722.41437 C620.296848,2721.49921 621.221396,2720.75957 622.243116,2720.19543 C623.264836,2719.63129 624.446378,2719.34923 625.787777,2719.34923 C626.828302,2719.34923 627.746582,2719.5216 628.542646,2719.86635 C629.33871,2720.21111 630.003131,2720.70002 630.53593,2721.33311 C631.068729,2721.9662 631.473023,2722.72778 631.748825,2723.61786 C632.024626,2724.50795 632.162525,2725.49205 632.162525,2726.57018 L632.162525,2738.69913 L628.815312,2738.69913 L628.815312,2726.57018 C628.815312,2725.12849 628.486236,2724.00963 627.828072,2723.21357 C627.169909,2722.4175 626.163875,2722.01948 624.80994,2722.01948 C623.819561,2722.01948 622.895012,2722.25766 622.036266,2722.73405 C621.17752,2723.21043 620.384602,2723.85605 619.657488,2724.67092 L619.657488,2738.69913 L616.310275,2738.69913 Z M652.417997,2711.75218 L652.417997,2714.81733 L643.711483,2714.81733 L643.711483,2738.69913 L640.063397,2738.69913 L640.063397,2714.81733 L631.319273,2714.81733 L631.319273,2711.75218 L652.417997,2711.75218 Z M651.465233,2738.69913 L651.465233,2719.6501 L653.383298,2719.6501 C653.746855,2719.6501 653.99758,2719.71905 654.135481,2719.85695 C654.273382,2719.99485 654.367404,2720.23304 654.41755,2720.57152 L654.643204,2723.54265 C655.295099,2722.21378 656.100554,2721.17641 657.059591,2720.43049 C658.018629,2719.68457 659.143758,2719.31162 660.435011,2719.31162 C660.961541,2719.31162 661.437919,2719.37117 661.864158,2719.49026 C662.290397,2719.60936 662.685289,2719.77546 663.048846,2719.98858 L662.616341,2722.48959 C662.528586,2722.803 662.334274,2722.9597 662.033399,2722.9597 C661.857889,2722.9597 661.58836,2722.90016 661.224803,2722.78106 C660.861246,2722.66196 660.353528,2722.60242 659.701633,2722.60242 C658.535744,2722.60242 657.56105,2722.9409 656.777523,2723.61786 C655.993995,2724.29483 655.338976,2725.27893 654.812446,2726.57018 L654.812446,2738.69913 L651.465233,2738.69913 Z M669.09138,2719.6501 L669.09138,2738.69913 L665.744167,2738.69913 L665.744167,2719.6501 L669.09138,2719.6501 Z M669.843563,2713.67025 C669.843563,2713.9962 669.777747,2714.3002 669.646115,2714.58227 C669.514482,2714.86434 669.338974,2715.11506 669.119587,2715.33445 C668.900199,2715.55384 668.64634,2715.72621 668.358002,2715.85158 C668.069664,2715.97694 667.762525,2716.03962 667.436578,2716.03962 C667.110631,2716.03962 666.806626,2715.97694 666.524557,2715.85158 C666.242487,2715.72621 665.991762,2715.55384 665.772374,2715.33445 C665.552986,2715.11506 665.380613,2714.86434 665.255248,2714.58227 C665.129884,2714.3002 665.067203,2713.9962 665.067203,2713.67025 C665.067203,2713.3443 665.129884,2713.03403 665.255248,2712.73942 C665.380613,2712.44482 665.552986,2712.18782 665.772374,2711.96844 C665.991762,2711.74905 666.242487,2711.57667 666.524557,2711.45131 C666.806626,2711.32595 667.110631,2711.26326 667.436578,2711.26326 C667.762525,2711.26326 668.069664,2711.32595 668.358002,2711.45131 C668.64634,2711.57667 668.900199,2711.74905 669.119587,2711.96844 C669.338974,2712.18782 669.514482,2712.44482 669.646115,2712.73942 C669.777747,2713.03403 669.843563,2713.3443 669.843563,2713.67025 L669.843563,2713.67025 Z M687.732974,2738.69913 L686.247413,2738.69913 C685.921466,2738.69913 685.658204,2738.64898 685.457621,2738.54869 C685.257038,2738.4484 685.125407,2738.23528 685.062725,2737.90934 L684.686634,2736.14171 C684.185176,2736.59302 683.696262,2736.99731 683.219878,2737.3546 C682.743493,2737.71189 682.242043,2738.01276 681.715512,2738.25722 C681.188982,2738.50168 680.627985,2738.68659 680.032504,2738.81195 C679.437023,2738.93732 678.775735,2739 678.048622,2739 C677.308972,2739 676.616344,2738.89658 675.970717,2738.68972 C675.325091,2738.48287 674.764093,2738.1726 674.287709,2737.7589 C673.811324,2737.3452 673.432102,2736.82181 673.150032,2736.18872 C672.867962,2735.55563 672.726929,2734.80659 672.726929,2733.94157 C672.726929,2733.18939 672.933778,2732.46542 673.34748,2731.76964 C673.761183,2731.07387 674.428738,2730.45646 675.350167,2729.91739 C676.271595,2729.37833 677.478209,2728.93642 678.970046,2728.59167 C680.461882,2728.24692 682.285907,2728.04947 684.442175,2727.99933 L684.442175,2726.51377 C684.442175,2725.03447 684.125634,2723.91561 683.492544,2723.15715 C682.859454,2722.3987 681.922369,2722.01948 680.681261,2722.01948 C679.866393,2722.01948 679.180033,2722.1229 678.622161,2722.32975 C678.06429,2722.5366 677.581644,2722.76852 677.17421,2723.02552 C676.766775,2723.28252 676.41576,2723.51444 676.121154,2723.72129 C675.826547,2723.92814 675.53508,2724.03156 675.246741,2724.03156 C675.021085,2724.03156 674.82364,2723.97202 674.654398,2723.85292 C674.485156,2723.73383 674.350391,2723.58652 674.250099,2723.41101 L673.648353,2722.33915 C674.701414,2721.3237 675.835945,2720.56526 677.05198,2720.0638 C678.268015,2719.56234 679.615662,2719.31162 681.094962,2719.31162 C682.160559,2719.31162 683.107046,2719.48713 683.934451,2719.83815 C684.761856,2720.18917 685.457618,2720.67808 686.021758,2721.3049 C686.585898,2721.93172 687.012131,2722.69017 687.300469,2723.58026 C687.588807,2724.47034 687.732974,2725.44817 687.732974,2726.51377 L687.732974,2738.69913 Z M679.045264,2736.64943 C679.634477,2736.64943 680.173535,2736.58988 680.662457,2736.47079 C681.151378,2736.35169 681.612085,2736.18245 682.044592,2735.96306 C682.4771,2735.74367 682.890796,2735.47728 683.285694,2735.16387 C683.680592,2734.85046 684.066081,2734.49317 684.442175,2734.09201 L684.442175,2730.12424 C682.900192,2730.17439 681.590154,2730.29662 680.51202,2730.49093 C679.433886,2730.68525 678.556349,2730.93911 677.879381,2731.25252 C677.202413,2731.56593 676.710365,2731.93575 676.403222,2732.36199 C676.096079,2732.78823 675.94251,2733.2646 675.94251,2733.79113 C675.94251,2734.29259 676.023996,2734.72509 676.18697,2735.08865 C676.349943,2735.45221 676.569328,2735.74994 676.84513,2735.98187 C677.120931,2736.21379 677.446874,2736.38303 677.822967,2736.48959 C678.19906,2736.59615 678.606488,2736.64943 679.045264,2736.64943 L679.045264,2736.64943 Z M695.279873,2711 L695.279873,2738.69913 L691.93266,2738.69913 L691.93266,2711 L695.279873,2711 Z M719.45001,2733.13298 C719.650593,2733.13298 719.832368,2733.21446 719.995342,2733.37743 L721.424489,2734.93821 C720.321283,2736.21693 718.983038,2737.21356 717.409714,2737.92814 C715.836391,2738.64272 713.940283,2739 711.721333,2739 C709.778185,2739 708.016841,2738.66466 706.43725,2737.99396 C704.857658,2737.32326 703.510011,2736.38304 702.394268,2735.17327 C701.278524,2733.9635 700.413523,2732.51243 699.799237,2730.82001 C699.184952,2729.12759 698.877814,2727.26596 698.877814,2725.23506 C698.877814,2723.20415 699.20689,2721.34252 699.865053,2719.6501 C700.523217,2717.95768 701.447765,2716.50348 702.638727,2715.28744 C703.829689,2714.07141 705.255688,2713.12805 706.916766,2712.45735 C708.577844,2711.78665 710.411271,2711.45131 712.417102,2711.45131 C714.397859,2711.45131 716.105924,2711.75845 717.541346,2712.37273 C718.976769,2712.98702 720.252332,2713.82068 721.368076,2714.87374 L720.183388,2716.54735 C720.095633,2716.67271 719.995343,2716.77614 719.882515,2716.85762 C719.769687,2716.93911 719.606716,2716.97985 719.393596,2716.97985 C719.230622,2716.97985 719.058249,2716.92031 718.876471,2716.80121 C718.694692,2716.68211 718.478442,2716.53481 718.227713,2716.3593 C717.976984,2716.18379 717.682382,2715.99575 717.343898,2715.79516 C717.005414,2715.59458 716.604254,2715.40654 716.140406,2715.23103 C715.676558,2715.05552 715.137499,2714.90822 714.523213,2714.78912 C713.908928,2714.67002 713.200629,2714.61048 712.398297,2714.61048 C710.956607,2714.61048 709.637166,2714.85807 708.439936,2715.35326 C707.242706,2715.84845 706.211599,2716.55361 705.346585,2717.46877 C704.48157,2718.38393 703.807747,2719.49966 703.325094,2720.81598 C702.842441,2722.13231 702.601118,2723.60532 702.601118,2725.23506 C702.601118,2726.91494 702.842441,2728.41302 703.325094,2729.72935 C703.807747,2731.04567 704.4659,2732.15827 705.299573,2733.06716 C706.133247,2733.97605 707.120476,2734.66868 708.261293,2735.14506 C709.402109,2735.62145 710.630661,2735.85964 711.946988,2735.85964 C712.74932,2735.85964 713.470154,2735.81263 714.109513,2735.7186 C714.748871,2735.62458 715.341209,2735.47728 715.886544,2735.2767 C716.43188,2735.07611 716.939598,2734.82225 717.409714,2734.51511 C717.879831,2734.20797 718.353074,2733.84128 718.829459,2733.41504 C719.042579,2733.227 719.249427,2733.13298 719.45001,2733.13298 L719.45001,2733.13298 Z M732.149361,2719.34923 C733.540905,2719.34923 734.797665,2719.58115 735.919676,2720.045 C737.041688,2720.50884 737.994443,2721.167 738.77797,2722.01948 C739.561498,2722.87195 740.163238,2723.90306 740.583209,2725.11283 C741.00318,2726.32259 741.213162,2727.67338 741.213162,2729.16521 C741.213162,2730.66958 741.00318,2732.0235 740.583209,2733.227 C740.163238,2734.4305 739.561498,2735.45847 738.77797,2736.31095 C737.994443,2737.16342 737.041688,2737.81844 735.919676,2738.27602 C734.797665,2738.7336 733.540905,2738.96239 732.149361,2738.96239 C730.757816,2738.96239 729.501056,2738.7336 728.379045,2738.27602 C727.257033,2737.81844 726.301144,2737.16342 725.511348,2736.31095 C724.721553,2735.45847 724.113544,2734.4305 723.687305,2733.227 C723.261067,2732.0235 723.04795,2730.66958 723.04795,2729.16521 C723.04795,2727.67338 723.261067,2726.32259 723.687305,2725.11283 C724.113544,2723.90306 724.721553,2722.87195 725.511348,2722.01948 C726.301144,2721.167 727.257033,2720.50884 728.379045,2720.045 C729.501056,2719.58115 730.757816,2719.34923 732.149361,2719.34923 L732.149361,2719.34923 Z M732.149361,2736.34856 C734.029827,2736.34856 735.433887,2735.71861 736.361584,2734.4587 C737.28928,2733.19878 737.753121,2731.44058 737.753121,2729.18402 C737.753121,2726.91492 737.28928,2725.14731 736.361584,2723.88113 C735.433887,2722.61495 734.029827,2721.98187 732.149361,2721.98187 C731.196591,2721.98187 730.369198,2722.14484 729.667158,2722.47079 C728.965117,2722.79673 728.379047,2723.26684 727.908931,2723.88113 C727.438814,2724.49541 727.087799,2725.25072 726.855875,2726.14708 C726.623951,2727.04343 726.507991,2728.05574 726.507991,2729.18402 C726.507991,2730.3123 726.623951,2731.32146 726.855875,2732.21155 C727.087799,2733.10164 727.438814,2733.85068 727.908931,2734.4587 C728.379047,2735.06671 728.965117,2735.53369 729.667158,2735.85964 C730.369198,2736.18558 731.196591,2736.34856 732.149361,2736.34856 L732.149361,2736.34856 Z M744.096529,2738.69913 L744.096529,2719.6501 L746.089813,2719.6501 C746.566197,2719.6501 746.867068,2719.88202 746.992432,2720.34587 L747.255696,2722.41437 C748.083101,2721.49921 749.00765,2720.75957 750.02937,2720.19543 C751.051089,2719.63129 752.232631,2719.34923 753.57403,2719.34923 C754.614555,2719.34923 755.532835,2719.5216 756.328899,2719.86635 C757.124963,2720.21111 757.789385,2720.70002 758.322183,2721.33311 C758.854982,2721.9662 759.259276,2722.72778 759.535078,2723.61786 C759.81088,2724.50795 759.948778,2725.49205 759.948778,2726.57018 L759.948778,2738.69913 L756.601566,2738.69913 L756.601566,2726.57018 C756.601566,2725.12849 756.272489,2724.00963 755.614326,2723.21357 C754.956163,2722.4175 753.950128,2722.01948 752.596193,2722.01948 C751.605814,2722.01948 750.681265,2722.25766 749.822519,2722.73405 C748.963773,2723.21043 748.170855,2723.85605 747.443742,2724.67092 L747.443742,2738.69913 L744.096529,2738.69913 Z M763.753569,2738.69913 L763.753569,2719.6501 L765.746853,2719.6501 C766.223238,2719.6501 766.524108,2719.88202 766.649472,2720.34587 L766.912736,2722.41437 C767.740141,2721.49921 768.66469,2720.75957 769.68641,2720.19543 C770.70813,2719.63129 771.889672,2719.34923 773.231071,2719.34923 C774.271595,2719.34923 775.189876,2719.5216 775.98594,2719.86635 C776.782004,2720.21111 777.446425,2720.70002 777.979224,2721.33311 C778.512023,2721.9662 778.916317,2722.72778 779.192119,2723.61786 C779.46792,2724.50795 779.605819,2725.49205 779.605819,2726.57018 L779.605819,2738.69913 L776.258606,2738.69913 L776.258606,2726.57018 C776.258606,2725.12849 775.929529,2724.00963 775.271366,2723.21357 C774.613203,2722.4175 773.607169,2722.01948 772.253233,2722.01948 C771.262855,2722.01948 770.338306,2722.25766 769.47956,2722.73405 C768.620814,2723.21043 767.827896,2723.85605 767.100782,2724.67092 L767.100782,2738.69913 L763.753569,2738.69913 Z M790.951241,2719.34923 C792.092057,2719.34923 793.145102,2719.54041 794.110408,2719.92277 C795.075714,2720.30513 795.909375,2720.85672 796.611416,2721.57757 C797.313456,2722.29841 797.861917,2723.18849 798.256815,2724.24782 C798.651713,2725.30715 798.849159,2726.51376 798.849159,2727.8677 C798.849159,2728.39423 798.792746,2728.74524 798.679918,2728.92075 C798.56709,2729.09626 798.353974,2729.18402 798.040563,2729.18402 L785.366285,2729.18402 C785.391357,2730.38751 785.554329,2731.43429 785.855203,2732.32438 C786.156078,2733.21447 786.569774,2733.95724 787.096305,2734.55272 C787.622835,2735.1482 788.249648,2735.59324 788.976761,2735.88784 C789.703875,2736.18245 790.518731,2736.32975 791.421355,2736.32975 C792.261297,2736.32975 792.985265,2736.2326 793.593283,2736.03828 C794.2013,2735.84397 794.724689,2735.63398 795.163464,2735.40833 C795.602239,2735.18267 795.968925,2734.97269 796.263531,2734.77837 C796.558137,2734.58406 796.811997,2734.4869 797.025116,2734.4869 C797.300918,2734.4869 797.514034,2734.59346 797.664471,2734.80658 L798.6047,2736.02888 C798.190997,2736.53034 797.695815,2736.96597 797.119139,2737.3358 C796.542463,2737.70562 795.925052,2738.00962 795.266889,2738.24782 C794.608726,2738.48601 793.928634,2738.66465 793.226594,2738.78375 C792.524553,2738.90284 791.828791,2738.96239 791.139287,2738.96239 C789.82296,2738.96239 788.610078,2738.73987 787.500603,2738.29483 C786.391128,2737.84979 785.432105,2737.1979 784.623504,2736.33915 C783.814904,2735.48041 783.184957,2734.41796 782.733645,2733.15178 C782.282333,2731.8856 782.056681,2730.43139 782.056681,2728.78912 C782.056681,2727.46026 782.260395,2726.21917 782.667829,2725.06582 C783.075264,2723.91246 783.661333,2722.9127 784.426056,2722.06649 C785.190779,2721.22028 786.12473,2720.55586 787.227937,2720.0732 C788.331144,2719.59055 789.572233,2719.34923 790.951241,2719.34923 L790.951241,2719.34923 Z M791.026459,2721.81263 C789.409258,2721.81263 788.136829,2722.2796 787.209132,2723.21357 C786.281436,2724.14753 785.704768,2725.4419 785.479112,2727.09671 L795.840428,2727.09671 C795.840428,2726.31945 795.73387,2725.60802 795.520751,2724.96239 C795.307631,2724.31676 794.994225,2723.7589 794.580522,2723.28878 C794.16682,2722.81867 793.662236,2722.45512 793.066755,2722.19812 C792.471274,2721.94112 791.791182,2721.81263 791.026459,2721.81263 L791.026459,2721.81263 Z M814.858114,2723.03492 C814.757822,2723.17282 814.657532,2723.27938 814.55724,2723.3546 C814.456949,2723.42982 814.312782,2723.46743 814.124735,2723.46743 C813.936689,2723.46743 813.732975,2723.38908 813.513587,2723.23237 C813.294199,2723.07567 813.015268,2722.90329 812.676784,2722.71525 C812.3383,2722.5272 811.927738,2722.35483 811.445085,2722.19812 C810.962432,2722.04141 810.370094,2721.96306 809.668053,2721.96306 C808.740357,2721.96306 807.919232,2722.12917 807.204655,2722.46138 C806.490078,2722.7936 805.891472,2723.27311 805.408819,2723.89993 C804.926166,2724.52675 804.562614,2725.2852 804.318154,2726.17529 C804.073693,2727.06537 803.951465,2728.062 803.951465,2729.16521 C803.951465,2730.31856 804.083095,2731.3434 804.346361,2732.23976 C804.609626,2733.13611 804.979445,2733.88829 805.45583,2734.49631 C805.932215,2735.10432 806.512017,2735.56816 807.195253,2735.88784 C807.878489,2736.20752 808.646334,2736.36736 809.498812,2736.36736 C810.313681,2736.36736 810.98437,2736.2702 811.510901,2736.07589 C812.037431,2735.88158 812.4762,2735.66532 812.82722,2735.42713 C813.178241,2735.18894 813.466574,2734.97269 813.69223,2734.77837 C813.917886,2734.58406 814.143539,2734.4869 814.369195,2734.4869 C814.657533,2734.4869 814.870649,2734.59346 815.00855,2734.80658 L815.948778,2736.02888 C815.121373,2737.04433 814.087133,2737.7871 812.846025,2738.25722 C811.604917,2738.72734 810.294879,2738.96239 808.91587,2738.96239 C807.724909,2738.96239 806.618584,2738.74301 805.596864,2738.30423 C804.575145,2737.86546 803.688205,2737.22924 802.936018,2736.39557 C802.183832,2735.56189 801.591494,2734.53706 801.158987,2733.32102 C800.726479,2732.10499 800.510229,2730.71973 800.510229,2729.16521 C800.510229,2727.74859 800.707675,2726.43856 801.102573,2725.23506 C801.497471,2724.03156 802.074138,2722.99418 802.832593,2722.1229 C803.591048,2721.25162 804.528133,2720.57153 805.643876,2720.08261 C806.759619,2719.59368 808.038317,2719.34923 809.480007,2719.34923 C810.80887,2719.34923 811.987278,2719.56548 813.015266,2719.99799 C814.043254,2720.43049 814.952132,2721.04163 815.741928,2721.83143 L814.858114,2723.03492 Z M823.946988,2739 C822.442615,2739 821.286145,2738.58004 820.477545,2737.74009 C819.668945,2736.90015 819.26465,2735.6904 819.26465,2734.11081 L819.26465,2722.45198 L816.970493,2722.45198 C816.76991,2722.45198 816.600671,2722.39243 816.46277,2722.27334 C816.324869,2722.15424 816.25592,2721.96933 816.25592,2721.7186 L816.25592,2720.38348 L819.377478,2719.98858 L820.148465,2714.10275 C820.173538,2713.91471 820.255024,2713.76114 820.392924,2713.64204 C820.530825,2713.52295 820.706333,2713.4634 820.919452,2713.4634 L822.611863,2713.4634 L822.611863,2720.02619 L828.065188,2720.02619 L828.065188,2722.45198 L822.611863,2722.45198 L822.611863,2733.88516 C822.611863,2734.68749 822.806175,2735.28296 823.194805,2735.67159 C823.583434,2736.06022 824.084885,2736.25453 824.69917,2736.25453 C825.050191,2736.25453 825.354195,2736.20752 825.611192,2736.1135 C825.868189,2736.01948 826.090707,2735.91605 826.278754,2735.80322 C826.4668,2735.6904 826.626638,2735.58697 826.75827,2735.49295 C826.889903,2735.39892 827.005863,2735.35191 827.106155,2735.35191 C827.281665,2735.35191 827.438368,2735.45847 827.576269,2735.67159 L828.554106,2737.26998 C827.97743,2737.80905 827.281668,2738.23215 826.466799,2738.53929 C825.651931,2738.84643 824.812002,2739 823.946988,2739 L823.946988,2739 Z" id="ClinTrialConnect"></path>
        </g>
    </g>
</svg>